<?xml version="1.0" standalone="no"?>
<!DOCTYPE svg PUBLIC "-//W3C//DTD SVG 20010904//EN"
 "http://www.w3.org/TR/2001/REC-SVG-20010904/DTD/svg10.dtd">
<svg version="1.0" xmlns="http://www.w3.org/2000/svg"
 width="48.000000pt" height="48.000000pt" viewBox="0 0 48.000000 48.000000"
 preserveAspectRatio="xMidYMid meet">

<g transform="translate(0.000000,48.000000) scale(0.100000,-0.100000)"
fill="#000000" stroke="none">
<path d="M200 191 l0 -131 35 0 35 0 0 56 c0 46 3 55 17 52 9 -2 27 -21 40
-43 12 -22 27 -46 31 -53 5 -8 23 -12 46 -10 l36 3 -33 51 -34 51 24 21 c28
25 30 71 4 103 -17 21 -29 24 -110 27 l-91 4 0 -131z m156 64 c10 -24 -15 -45
-52 -45 -31 0 -34 3 -34 30 0 28 2 30 40 30 27 0 43 -5 46 -15z"/>
</g>
</svg>
