<?xml version="1.0" standalone="no"?>
<!DOCTYPE svg PUBLIC "-//W3C//DTD SVG 20010904//EN"
 "http://www.w3.org/TR/2001/REC-SVG-20010904/DTD/svg10.dtd">
<svg version="1.0" xmlns="http://www.w3.org/2000/svg"
 width="48.000000pt" height="48.000000pt" viewBox="0 0 48.000000 48.000000"
 preserveAspectRatio="xMidYMid meet">

<g transform="translate(0.000000,48.000000) scale(0.100000,-0.100000)"
fill="#000000" stroke="none">
<path d="M72 408 c-7 -7 -12 -29 -12 -50 l0 -38 180 0 180 0 0 38 c0 21 -5 43
-12 50 -17 17 -319 17 -336 0z m54 -29 c10 -17 -13 -36 -27 -22 -12 12 -4 33
11 33 5 0 12 -5 16 -11z m59 -9 c0 -22 -29 -18 -33 3 -3 14 1 18 15 15 10 -2
18 -10 18 -18z m205 0 c0 -18 -7 -20 -85 -20 -78 0 -85 2 -85 20 0 18 7 20 85
20 78 0 85 -2 85 -20z"/>
<path d="M102 288 c-17 -17 -15 -35 6 -47 16 -10 16 -10 -2 -11 -15 0 -16 -3
-6 -15 10 -12 16 -13 26 -4 19 16 18 38 -3 46 -15 6 -15 7 1 13 15 5 16 8 4
18 -11 9 -17 9 -26 0z"/>
<path d="M310 207 c-89 -46 -32 -184 62 -148 19 7 29 3 59 -26 20 -19 39 -31
42 -25 4 5 -9 24 -28 42 -29 28 -32 36 -24 57 25 67 -47 133 -111 100z m80
-27 c40 -40 11 -110 -45 -110 -32 0 -65 33 -65 65 0 32 33 65 65 65 14 0 34
-9 45 -20z"/>
<path d="M102 168 c-17 -17 -15 -35 6 -47 16 -10 16 -10 -2 -11 -15 0 -16 -3
-6 -15 10 -12 16 -13 26 -4 19 16 18 38 -3 46 -15 6 -15 7 1 13 15 5 16 8 4
18 -11 9 -17 9 -26 0z"/>
</g>
</svg>
